<svg width="115" height="75" viewBox="0 0 115 75" fill="none" xmlns="http://www.w3.org/2000/svg">
<path d="M34 25.3043C34 16.8305 34 12.5937 35.0031 11.1684C36.0063 9.74303 40.0008 8.37939 47.9898 5.65209L49.5119 5.13251C53.6764 3.71084 55.7586 3 57.9146 3C60.0707 3 62.1528 3.71084 66.3174 5.13251L67.8395 5.65209C75.8286 8.37939 79.8231 9.74303 80.8262 11.1684C81.8293 12.5937 81.8293 16.8305 81.8293 25.3043C81.8293 26.5839 81.8293 27.972 81.8293 29.4772C81.8293 44.4179 70.5655 51.6686 63.4984 54.7473C61.5815 55.5824 60.6231 56 57.9146 56C55.2062 56 54.2477 55.5824 52.3307 54.7473C45.2637 51.6686 34 44.4179 34 29.4772C34 27.972 34 26.5839 34 25.3043Z" stroke="url(#paint0_linear_42_673)" stroke-width="6"/>
<path d="M70.1951 29.5002C70.1951 31.1129 69.8775 32.7098 69.2603 34.1997C68.6431 35.6896 67.7385 37.0434 66.5982 38.1837C65.4578 39.3241 64.104 40.2287 62.6141 40.8459C61.1243 41.4631 59.5273 41.7807 57.9146 41.7807C56.302 41.7807 54.705 41.4631 53.2151 40.8459C51.7251 40.2287 50.3714 39.3241 49.231 38.1837C48.0907 37.0434 47.1861 35.6896 46.5689 34.1997C45.9518 32.7098 45.6341 31.1129 45.6341 29.5002C45.6341 27.8875 45.9518 26.2906 46.5689 24.8007C47.1861 23.3107 48.0907 21.9569 49.231 20.8166C50.3714 19.6762 51.7252 18.7717 53.2151 18.1545C54.705 17.5374 56.302 17.2197 57.9146 17.2197C59.5273 17.2197 61.1243 17.5374 62.6141 18.1545C64.104 18.7717 65.4578 19.6762 66.5982 20.8166C67.7385 21.9569 68.6431 23.3108 69.2603 24.8007C69.8775 26.2906 70.1951 27.8875 70.1951 29.5002Z" stroke="url(#paint1_linear_42_673)" stroke-width="2"/>
<path d="M63.3382 34.1997C63.598 32.7098 63.7317 31.1129 63.7317 29.5002C63.7317 27.8875 63.598 26.2906 63.3382 24.8007C63.0781 23.3108 62.6973 21.9569 62.2172 20.8166C61.7371 19.6762 61.167 18.7717 60.5398 18.1545C59.9123 17.5374 59.2399 17.2197 58.561 17.2197C57.8821 17.2197 57.2096 17.5374 56.5821 18.1545C55.9549 18.7717 55.3849 19.6762 54.9048 20.8166C54.4246 21.9569 54.0438 23.3107 53.7837 24.8007C53.5239 26.2906 53.3902 27.8875 53.3902 29.5002C53.3902 31.1129 53.5239 32.7098 53.7837 34.1997C54.0436 35.6896 54.4246 37.0434 54.9048 38.1837C55.3849 39.3241 55.9549 40.2287 56.5821 40.8459C57.2096 41.4631 57.8821 41.7807 58.561 41.7807C59.2399 41.7807 59.9123 41.4631 60.5398 40.8459C61.167 40.2287 61.7371 39.3241 62.2172 38.1837C62.6973 37.0434 63.0781 35.6896 63.3382 34.1997Z" stroke="url(#paint2_linear_42_673)" stroke-width="2"/>
<path d="M45.6341 28.8535H70.1951" stroke="url(#paint3_linear_42_673)" stroke-width="2" stroke-linecap="round"/>
<path d="M0 70.6266L3.5974 70.3951C3.6753 70.9954 3.83389 71.4527 4.07316 71.7672C4.46267 72.2759 5.01911 72.5303 5.74249 72.5303C6.28224 72.5303 6.69679 72.4017 6.98614 72.1445C7.28105 71.8815 7.42851 71.5785 7.42851 71.2355C7.42851 70.9096 7.2894 70.6181 7.01118 70.3608C6.73296 70.1036 6.08748 69.8606 5.07476 69.6319C3.41656 69.2489 2.23412 68.7401 1.52744 68.1055C0.815188 67.471 0.459065 66.662 0.459065 65.6788C0.459065 65.0328 0.639909 64.4239 1.0016 63.8522C1.36885 63.2748 1.91694 62.8232 2.64588 62.4974C3.38039 62.1658 4.38477 62 5.65902 62C7.22263 62 8.41341 62.3001 9.23138 62.9004C10.0549 63.4949 10.5446 64.4439 10.7004 65.7474L7.13638 65.9617C7.04178 65.3958 6.84146 64.9842 6.53542 64.7269C6.23494 64.4697 5.81761 64.341 5.28342 64.341C4.84383 64.341 4.51275 64.4382 4.29017 64.6326C4.0676 64.8212 3.95631 65.0528 3.95631 65.3272C3.95631 65.5273 4.04812 65.7073 4.23175 65.8674C4.40981 66.0332 4.8327 66.1876 5.50044 66.3305C7.15307 66.6964 8.33551 67.0679 9.04776 67.4453C9.76557 67.8168 10.2858 68.2799 10.6086 68.8344C10.9369 69.389 11.101 70.0092 11.101 70.6953C11.101 71.5013 10.884 72.2445 10.45 72.9248C10.016 73.6051 9.40945 74.1225 8.63043 74.4769C7.85141 74.8256 6.86928 75 5.68406 75C3.60297 75 2.16178 74.5884 1.3605 73.7652C0.559225 72.942 0.105724 71.8958 0 70.6266Z" fill="url(#paint4_linear_42_673)"/>
<path d="M16.8853 62.2144V65.6788H18.7549V68.2256H16.8853V71.4584C16.8853 71.8472 16.9214 72.1044 16.9938 72.2302C17.105 72.4246 17.2998 72.5218 17.578 72.5218C17.8284 72.5218 18.179 72.4474 18.6297 72.2988L18.8801 74.7084C18.0399 74.8971 17.2553 74.9914 16.5263 74.9914C15.6806 74.9914 15.0573 74.8799 14.6567 74.657C14.2561 74.434 13.9584 74.0967 13.7636 73.6451C13.5744 73.1878 13.4798 72.4503 13.4798 71.4327V68.2256H12.2278V65.6788H13.4798V64.0066L16.8853 62.2144Z" fill="url(#paint5_linear_42_673)"/>
<path d="M23.4791 68.6286L20.2323 68.277C20.3547 67.6939 20.53 67.2366 20.7581 66.905C20.9918 66.5677 21.3257 66.2762 21.7597 66.0303C22.0713 65.8531 22.4998 65.7159 23.0451 65.6187C23.5904 65.5215 24.1802 65.473 24.8146 65.473C25.8328 65.473 26.6508 65.533 27.2685 65.653C27.8861 65.7674 28.4008 66.0103 28.8126 66.3819C29.1019 66.6392 29.3301 67.0051 29.497 67.4796C29.664 67.9483 29.7474 68.3971 29.7474 68.8259V72.8476C29.7474 73.2764 29.7725 73.6137 29.8225 73.8595C29.8782 74.0996 29.995 74.4083 30.1731 74.7856H26.9847C26.8567 74.5512 26.7732 74.374 26.7343 74.254C26.6953 74.1282 26.6564 73.9338 26.6174 73.6708C26.1723 74.111 25.7299 74.4255 25.2903 74.6141C24.6894 74.8657 23.991 74.9914 23.1953 74.9914C22.1381 74.9914 21.334 74.7399 20.7831 74.2368C20.2378 73.7337 19.9652 73.1135 19.9652 72.376C19.9652 71.6843 20.1627 71.1154 20.5578 70.6695C20.9528 70.2236 21.6818 69.892 22.7446 69.6748C24.0188 69.4118 24.8452 69.2289 25.2235 69.126C25.6019 69.0174 26.0026 68.8773 26.4255 68.7058C26.4255 68.277 26.3392 67.9769 26.1667 67.8054C25.9942 67.6339 25.691 67.5482 25.2569 67.5482C24.7005 67.5482 24.2832 67.6396 24.0049 67.8226C23.7879 67.9655 23.6126 68.2342 23.4791 68.6286ZM26.4255 70.4637C25.958 70.6352 25.4712 70.7867 24.9648 70.9182C24.2748 71.1069 23.838 71.2927 23.6544 71.4756C23.4652 71.6642 23.3706 71.8786 23.3706 72.1187C23.3706 72.3931 23.4624 72.619 23.646 72.7962C23.8352 72.9677 24.1107 73.0534 24.4723 73.0534C24.8507 73.0534 25.2013 72.9591 25.524 72.7704C25.8523 72.5818 26.0832 72.3531 26.2168 72.0844C26.3559 71.81 26.4255 71.4556 26.4255 71.0211V70.4637Z" fill="url(#paint6_linear_42_673)"/>
<path d="M41.1239 74.7856H37.9522V73.3107C37.4792 73.9167 37.0007 74.3483 36.5165 74.6055C36.038 74.8628 35.4482 74.9914 34.7471 74.9914C33.8122 74.9914 33.0777 74.7056 32.5435 74.1339C32.0149 73.5565 31.7506 72.6704 31.7506 71.4756V65.6788H35.1644V70.6867C35.1644 71.2584 35.2673 71.6642 35.4732 71.9044C35.6791 72.1445 35.9685 72.2645 36.3413 72.2645C36.7475 72.2645 37.0786 72.1044 37.3345 71.7843C37.596 71.4642 37.7268 70.8896 37.7268 70.0607V65.6788H41.1239V74.7856Z" fill="url(#paint7_linear_42_673)"/>
<path d="M43.1855 65.6788H46.3489V67.1623C46.8219 66.5563 47.3004 66.1247 47.7845 65.8674C48.2686 65.6044 48.8584 65.473 49.554 65.473C50.4944 65.473 51.2289 65.7617 51.7575 66.3391C52.2917 66.9107 52.5588 67.7968 52.5588 68.9974V74.7856H49.145V69.7777C49.145 69.206 49.0421 68.803 48.8362 68.5686C48.6303 68.3285 48.341 68.2084 47.9681 68.2084C47.5564 68.2084 47.2225 68.3685 46.9665 68.6887C46.7106 69.0088 46.5826 69.5833 46.5826 70.4123V74.7856H43.1855V65.6788Z" fill="url(#paint8_linear_42_673)"/>
<path d="M61.1976 71.2269L64.4277 71.6042C64.2496 72.296 63.9575 72.8962 63.5513 73.405C63.1451 73.9081 62.6248 74.2997 61.9905 74.5798C61.3617 74.8599 60.5604 75 59.5867 75C58.6463 75 57.8617 74.9114 57.2329 74.7342C56.6097 74.5512 56.0727 74.2597 55.622 73.8595C55.1713 73.4536 54.8179 72.9791 54.562 72.436C54.306 71.8929 54.178 71.1726 54.178 70.2751C54.178 69.3375 54.3338 68.5572 54.6454 67.934C54.8736 67.4767 55.1852 67.0679 55.5803 66.7078C55.9753 66.3419 56.3816 66.0704 56.7989 65.8931C57.461 65.613 58.3096 65.473 59.3446 65.473C60.7914 65.473 61.8931 65.7388 62.6499 66.2704C63.4122 66.8021 63.9464 67.5796 64.2524 68.6029L61.0557 69.0402C60.9555 68.6515 60.7719 68.3599 60.5048 68.1656C60.2433 67.9655 59.8899 67.8654 59.4448 67.8654C58.8828 67.8654 58.4265 68.0741 58.0759 68.4914C57.7309 68.903 57.5584 69.529 57.5584 70.3694C57.5584 71.1183 57.7309 71.6871 58.0759 72.0759C58.4209 72.4646 58.8605 72.659 59.3947 72.659C59.8398 72.659 60.2127 72.5418 60.5131 72.3074C60.8192 72.073 61.0473 71.7128 61.1976 71.2269Z" fill="url(#paint9_linear_42_673)"/>
<path d="M65.9885 62.2144H69.3856V66.845C69.8475 66.3533 70.3065 66.0018 70.7628 65.7902C71.2191 65.5787 71.7588 65.473 72.3821 65.473C73.3058 65.473 74.0319 65.7617 74.5605 66.3391C75.0947 66.9164 75.3618 67.8026 75.3618 68.9974V74.7856H71.948V69.7777C71.948 69.206 71.8451 68.803 71.6392 68.5686C71.4333 68.3285 71.144 68.2084 70.7712 68.2084C70.3594 68.2084 70.0255 68.3685 69.7696 68.6887C69.5136 69.0088 69.3856 69.5833 69.3856 70.4123V74.7856H65.9885V62.2144Z" fill="url(#paint10_linear_42_673)"/>
<path d="M76.4051 62.2144H80.3614L83.1158 71.2612L85.8285 62.2144H89.6679L85.1274 74.7856H81.0292L76.4051 62.2144Z" fill="url(#paint11_linear_42_673)"/>
<path d="M90.9033 62.2144H97.1883C98.5571 62.2144 99.581 62.5488 100.26 63.2177C100.944 63.8865 101.286 64.8384 101.286 66.0732C101.286 67.3423 100.914 68.3342 100.168 69.0488C99.428 69.7634 98.2956 70.1207 96.7709 70.1207H94.701V74.7856H90.9033V62.2144ZM94.701 67.5739H95.6274C96.3564 67.5739 96.8683 67.4453 97.1632 67.188C97.4581 66.925 97.6056 66.5906 97.6056 66.1847C97.6056 65.7902 97.4776 65.4558 97.2217 65.1814C96.9657 64.907 96.4844 64.7698 95.7777 64.7698H94.701V67.5739Z" fill="url(#paint12_linear_42_673)"/>
<path d="M103.298 62.2144H106.829L111.436 69.1689V62.2144H115V74.7856H111.436L106.854 67.8826V74.7856H103.298V62.2144Z" fill="url(#paint13_linear_42_673)"/>
<defs>
<linearGradient id="paint0_linear_42_673" x1="57.9146" y1="3" x2="57.9146" y2="56" gradientUnits="userSpaceOnUse">
<stop stop-color="#F31D77"/>
<stop offset="1" stop-color="#5E2D92"/>
</linearGradient>
<linearGradient id="paint1_linear_42_673" x1="57.9146" y1="17.2197" x2="57.9146" y2="41.7807" gradientUnits="userSpaceOnUse">
<stop stop-color="#F41D77"/>
<stop offset="1" stop-color="#5E2D92"/>
</linearGradient>
<linearGradient id="paint2_linear_42_673" x1="58.561" y1="17.2197" x2="58.561" y2="41.7807" gradientUnits="userSpaceOnUse">
<stop stop-color="#F41D77"/>
<stop offset="1" stop-color="#5E2D92"/>
</linearGradient>
<linearGradient id="paint3_linear_42_673" x1="57.9146" y1="28.8535" x2="57.9146" y2="29.8535" gradientUnits="userSpaceOnUse">
<stop stop-color="#F41D77"/>
<stop offset="1" stop-color="#5E2D92"/>
</linearGradient>
<linearGradient id="paint4_linear_42_673" x1="-4.66577" y1="67.6511" x2="120.334" y2="67.6511" gradientUnits="userSpaceOnUse">
<stop stop-color="#F41D77"/>
<stop offset="1" stop-color="#602D91"/>
</linearGradient>
<linearGradient id="paint5_linear_42_673" x1="-4.66577" y1="67.6511" x2="120.334" y2="67.6511" gradientUnits="userSpaceOnUse">
<stop stop-color="#F41D77"/>
<stop offset="1" stop-color="#602D91"/>
</linearGradient>
<linearGradient id="paint6_linear_42_673" x1="-4.66577" y1="67.6511" x2="120.334" y2="67.6511" gradientUnits="userSpaceOnUse">
<stop stop-color="#F41D77"/>
<stop offset="1" stop-color="#602D91"/>
</linearGradient>
<linearGradient id="paint7_linear_42_673" x1="-4.66577" y1="67.6511" x2="120.334" y2="67.6511" gradientUnits="userSpaceOnUse">
<stop stop-color="#F41D77"/>
<stop offset="1" stop-color="#602D91"/>
</linearGradient>
<linearGradient id="paint8_linear_42_673" x1="-4.66577" y1="67.6511" x2="120.334" y2="67.6511" gradientUnits="userSpaceOnUse">
<stop stop-color="#F41D77"/>
<stop offset="1" stop-color="#602D91"/>
</linearGradient>
<linearGradient id="paint9_linear_42_673" x1="-4.66577" y1="67.6511" x2="120.334" y2="67.6511" gradientUnits="userSpaceOnUse">
<stop stop-color="#F41D77"/>
<stop offset="1" stop-color="#602D91"/>
</linearGradient>
<linearGradient id="paint10_linear_42_673" x1="-4.66577" y1="67.6511" x2="120.334" y2="67.6511" gradientUnits="userSpaceOnUse">
<stop stop-color="#F41D77"/>
<stop offset="1" stop-color="#602D91"/>
</linearGradient>
<linearGradient id="paint11_linear_42_673" x1="-4.66577" y1="67.6511" x2="120.334" y2="67.6511" gradientUnits="userSpaceOnUse">
<stop stop-color="#F41D77"/>
<stop offset="1" stop-color="#602D91"/>
</linearGradient>
<linearGradient id="paint12_linear_42_673" x1="-4.66577" y1="67.6511" x2="120.334" y2="67.6511" gradientUnits="userSpaceOnUse">
<stop stop-color="#F41D77"/>
<stop offset="1" stop-color="#602D91"/>
</linearGradient>
<linearGradient id="paint13_linear_42_673" x1="-4.66577" y1="67.6511" x2="120.334" y2="67.6511" gradientUnits="userSpaceOnUse">
<stop stop-color="#F41D77"/>
<stop offset="1" stop-color="#602D91"/>
</linearGradient>
</defs>
</svg>
